<svg xmlns="http://www.w3.org/2000/svg" viewBox="0 0 500 500" width="500" height="500">
  <path d="M 385.152 12.508 C 387.33 12.508 389.094 14.272 389.094 16.45 L 389.094 483.55 C 389.094 485.728 387.33 487.492 385.152 487.492 L 65.867 487.492 C 63.689 487.492 61.925 485.728 61.925 483.55 L 61.925 137.498 L 186.915 12.508 L 385.152 12.508 Z" style="fill-rule: nonzero; fill: rgb(58, 58, 58); stroke: rgb(45, 46, 42); stroke-linejoin: round; stroke-linecap: round; filter: none; vector-effect: non-scaling-stroke; stroke-width: 8px;" transform="matrix(1, 0, 0, 1, -1.4210854715202004e-14, -2.842170943040401e-14)">
    <title>fileicon</title>
  </path>
  <rect x="110.93" y="311.977" width="327.146" height="121.264" style="stroke-linecap: round; stroke-linejoin: round; fill: rgb(255, 158, 158); fill-opacity: 0.37; stroke: rgb(116, 45, 45); stroke-opacity: 0.47; filter: none; vector-effect: non-scaling-stroke; stroke-width: 8px;" rx="9.735" ry="9.735" transform="matrix(1, 0, 0, 1, -1.4210854715202004e-14, -2.842170943040401e-14)">
    <title>back</title>
  </rect>
  <text style="fill: rgb(239, 239, 239); font-family: Arial, sans-serif; font-size: 24.8px; stroke: rgb(255, 255, 255); stroke-linecap: round; stroke-linejoin: round; stroke-width: 0px; white-space: pre; vector-effect: non-scaling-stroke;" transform="matrix(4.564823150634766, 0, 0, 4.588580131530762, -66.81414031982422, -591.5457153320312)" x="38.938" y="219.469"><title>ext</title>.AEINI</text>
</svg>